<svg width="10" height="20" viewBox="0 0 10 20" fill="none" xmlns="http://www.w3.org/2000/svg">
<path d="M10 20C8.68678 20 7.38642 19.7413 6.17316 19.2388C4.95991 18.7362 3.85752 17.9997 2.92893 17.0711C2.00034 16.1425 1.26375 15.0401 0.761203 13.8268C0.258657 12.6136 -4.94516e-07 11.3132 -4.37114e-07 10C-3.79711e-07 8.68678 0.258657 7.38642 0.761205 6.17316C1.26375 4.95991 2.00035 3.85752 2.92893 2.92893C3.85752 2.00035 4.95991 1.26375 6.17317 0.761204C7.38642 0.258657 8.68678 -6.09322e-07 10 -4.37114e-07L10 10L10 20Z" fill="#FFCA42"/>
</svg>
