<svg width="38" height="33" viewBox="0 0 38 33" fill="none" xmlns="http://www.w3.org/2000/svg">
<path d="M1 10.5H5L7.68 23.89C7.77144 24.3504 8.02191 24.764 8.38755 25.0583C8.75318 25.3526 9.2107 25.509 9.68 25.5H19.4C19.8693 25.509 20.3268 25.3526 20.6925 25.0583C21.0581 24.764 21.3086 24.3504 21.4 23.89L23 15.5H6M10 30.5C10 31.0523 9.55228 31.5 9 31.5C8.44772 31.5 8 31.0523 8 30.5C8 29.9477 8.44772 29.5 9 29.5C9.55228 29.5 10 29.9477 10 30.5ZM21 30.5C21 31.0523 20.5523 31.5 20 31.5C19.4477 31.5 19 31.0523 19 30.5C19 29.9477 19.4477 29.5 20 29.5C20.5523 29.5 21 29.9477 21 30.5Z" stroke="white" stroke-width="2" stroke-linecap="round" stroke-linejoin="round"/>
<circle cx="27.5" cy="10.5" r="10.5" fill="#FFCA42"/>
<path d="M25.544 14.1776C27.4474 14.1811 28.6158 12.7749 28.6193 10.3743C28.6229 7.98793 27.4474 6.62784 25.544 6.62784C23.6406 6.62784 22.4759 7.98438 22.4723 10.3743C22.4652 12.7678 23.6406 14.1776 25.544 14.1776ZM25.544 12.7393C24.7876 12.7393 24.2727 11.9794 24.2798 10.3743C24.2834 8.80114 24.7912 8.0554 25.544 8.0554C26.3004 8.0554 26.8082 8.80114 26.8118 10.3743C26.8153 11.9794 26.304 12.7393 25.544 12.7393ZM32.889 6.72727H31.259L29.4657 7.84233V9.36222L31.0921 8.3679H31.1347V14H32.889V6.72727Z" fill="#1B3764"/>
</svg>
