<svg width="45" height="45" viewBox="0 0 45 45" fill="none" xmlns="http://www.w3.org/2000/svg">
<rect width="45" height="45" fill="white"/>
<path d="M18.125 28H15.2188V18.6562H18.125V28ZM17.875 16.875C17.5417 17.2083 17.1458 17.375 16.6875 17.375C16.2292 17.375 15.8333 17.2083 15.5 16.875C15.1667 16.5417 15 16.1458 15 15.6875C15 15.2292 15.1667 14.8333 15.5 14.5C15.8333 14.1667 16.2292 14 16.6875 14C17.1458 14 17.5417 14.1667 17.875 14.5C18.2083 14.8333 18.375 15.2292 18.375 15.6875C18.375 16.1458 18.2083 16.5417 17.875 16.875ZM29 28H26.0938V23.4375C26.0938 23.0833 26.0833 22.8021 26.0625 22.5938C26.0417 22.3646 25.9896 22.1146 25.9062 21.8438C25.8229 21.5521 25.6667 21.3333 25.4375 21.1875C25.2292 21.0417 24.9479 20.9688 24.5938 20.9688C23.9062 20.9688 23.4375 21.1875 23.1875 21.625C22.9583 22.0625 22.8438 22.6458 22.8438 23.375V28H19.9375V18.6562H22.75V19.9375H22.7812C22.9896 19.5208 23.3333 19.1667 23.8125 18.875C24.2917 18.5625 24.8646 18.4062 25.5312 18.4062C26.2396 18.4062 26.8229 18.5208 27.2812 18.75C27.7604 18.9583 28.1146 19.2812 28.3438 19.7188C28.5938 20.1354 28.7604 20.5938 28.8438 21.0938C28.9479 21.5938 29 22.1875 29 22.875V28Z" fill="#1B3764"/>
</svg>
