<svg width="119" height="35" viewBox="0 0 119 35" fill="none" xmlns="http://www.w3.org/2000/svg">
<path d="M35.0199 28H39.3253V21.3977H42.9446C47.6278 21.3977 50.3523 18.6037 50.3523 14.5369C50.3523 10.4901 47.6776 7.63636 43.054 7.63636H35.0199V28ZM39.3253 17.9474V11.1562H42.2287C44.7145 11.1562 45.9176 12.5085 45.9176 14.5369C45.9176 16.5554 44.7145 17.9474 42.2486 17.9474H39.3253ZM57.0142 28.2884C59.2713 28.2884 60.733 27.304 61.4787 25.8821H61.598V28H65.6151V17.6989C65.6151 14.0597 62.5327 12.5284 59.1321 12.5284C55.473 12.5284 53.0668 14.2784 52.4801 17.0625L56.3977 17.3807C56.6861 16.3665 57.5909 15.6207 59.1122 15.6207C60.554 15.6207 61.3793 16.3466 61.3793 17.5994V17.6591C61.3793 18.6435 60.3352 18.7727 57.6804 19.0312C54.6577 19.3097 51.9432 20.3239 51.9432 23.7344C51.9432 26.7571 54.1009 28.2884 57.0142 28.2884ZM58.2273 25.3651C56.9247 25.3651 55.9901 24.7585 55.9901 23.5952C55.9901 22.402 56.9744 21.8153 58.4659 21.6065C59.3906 21.4773 60.902 21.2585 61.4091 20.9205V22.5412C61.4091 24.142 60.0866 25.3651 58.2273 25.3651ZM75.782 34.0455C80.147 34.0455 83.2493 32.0568 83.2493 28.1491V12.7273H79.0433V15.2926H78.8842C78.3175 14.0497 77.0746 12.5284 74.5192 12.5284C71.1683 12.5284 68.3345 15.1335 68.3345 20.3338C68.3345 25.4148 71.0888 27.7812 74.5291 27.7812C76.9652 27.7812 78.3274 26.5582 78.8842 25.2955H79.0632V28.0895C79.0632 30.1875 77.7209 31.0028 75.8814 31.0028C74.0121 31.0028 73.0675 30.1875 72.7195 29.2628L68.8018 29.7898C69.3089 32.196 71.6655 34.0455 75.782 34.0455ZM75.8714 24.5994C73.7933 24.5994 72.6598 22.9489 72.6598 20.3139C72.6598 17.7188 73.7734 15.8991 75.8714 15.8991C77.9297 15.8991 79.0831 17.6392 79.0831 20.3139C79.0831 23.0085 77.9098 24.5994 75.8714 24.5994ZM93.5803 28.2983C97.3587 28.2983 99.9041 26.4588 100.501 23.625L96.5831 23.3665C96.1555 24.5298 95.0618 25.1364 93.6499 25.1364C91.532 25.1364 90.1896 23.7344 90.1896 21.4574V21.4474H100.59V20.2841C100.59 15.0938 97.4482 12.5284 93.4112 12.5284C88.9169 12.5284 86.0036 15.7202 86.0036 20.4332C86.0036 25.2756 88.8771 28.2983 93.5803 28.2983ZM90.1896 18.8224C90.2791 17.0824 91.6016 15.6903 93.4808 15.6903C95.3203 15.6903 96.593 17.0028 96.603 18.8224H90.1896ZM116.062 17.0824C115.684 14.2685 113.417 12.5284 109.559 12.5284C105.651 12.5284 103.076 14.3381 103.086 17.2812C103.076 19.5682 104.518 21.0497 107.501 21.6463L110.146 22.1733C111.478 22.4418 112.085 22.929 112.104 23.6946C112.085 24.5994 111.1 25.2457 109.619 25.2457C108.107 25.2457 107.103 24.5994 106.844 23.3565L102.678 23.5753C103.076 26.4986 105.562 28.2983 109.609 28.2983C113.566 28.2983 116.4 26.2798 116.41 23.267C116.4 21.0597 114.958 19.7372 111.995 19.1307L109.231 18.5739C107.809 18.2656 107.282 17.7784 107.292 17.0426C107.282 16.1278 108.316 15.5312 109.629 15.5312C111.1 15.5312 111.975 16.3366 112.184 17.321L116.062 17.0824Z" fill="white"/>
<path d="M3.56348 25.4H24.5V3H3.5057C1.57228 3.00642 0.00635613 4.58725 0 6.53908V27.1646H0.00057783C0.00057783 27.1733 0 27.1821 0 27.1908C0 29.2558 1.60521 31 3.5057 31H24.5V29.1333H3.5057C2.63895 29.1333 1.84906 28.2076 1.84906 27.1908C1.84906 26.2202 2.63433 25.4 3.56348 25.4ZM5.54717 4.88592H11.0943V14.9671L8.29764 12.4885L5.54717 14.9525V4.88592ZM1.84906 6.55367C1.84617 5.62617 2.58695 4.87192 3.5057 4.86667H3.69811H5.54717H3.69811V17.4667H5.52637L8.30458 14.9782L11.1117 17.4667H12.9434V4.86667H22.6509V23.5333H5.55179H3.70274H3.56348C2.96196 23.5333 2.37141 23.692 1.84963 23.993V6.55367H1.84906Z" fill="#FFCA42"/>
</svg>
