<svg width="45" height="45" viewBox="0 0 45 45" fill="none" xmlns="http://www.w3.org/2000/svg">
<rect width="45" height="45" fill="white"/>
<path d="M28.3438 19.75C28.3646 19.8333 28.375 19.9688 28.375 20.1562C28.375 21.2604 28.1667 22.3646 27.75 23.4688C27.3333 24.5521 26.7396 25.5521 25.9688 26.4688C25.2188 27.3646 24.2396 28.0938 23.0312 28.6562C21.8229 29.2188 20.4896 29.5 19.0312 29.5C17.1979 29.5 15.5208 29.0104 14 28.0312C14.2292 28.0521 14.4896 28.0625 14.7812 28.0625C16.3021 28.0625 17.6667 27.5938 18.875 26.6562C18.1458 26.6562 17.5 26.4479 16.9375 26.0312C16.3958 25.5938 16.0208 25.0521 15.8125 24.4062C16.0208 24.4271 16.2188 24.4375 16.4062 24.4375C16.6979 24.4375 16.9896 24.4062 17.2812 24.3438C16.5312 24.1771 15.9062 23.7917 15.4062 23.1875C14.9062 22.5833 14.6562 21.8958 14.6562 21.125V21.0625C15.1146 21.3333 15.6042 21.4792 16.125 21.5C15.1458 20.8333 14.6562 19.9167 14.6562 18.75C14.6562 18.1667 14.8125 17.6146 15.125 17.0938C15.9375 18.1146 16.9271 18.9271 18.0938 19.5312C19.2812 20.1354 20.5417 20.4688 21.875 20.5312C21.8333 20.2812 21.8125 20.0312 21.8125 19.7812C21.8125 18.8854 22.125 18.1146 22.75 17.4688C23.3958 16.8229 24.1667 16.5 25.0625 16.5C26.0208 16.5 26.8229 16.8438 27.4688 17.5312C28.2188 17.3854 28.9167 17.125 29.5625 16.75C29.3125 17.5208 28.8333 18.125 28.125 18.5625C28.75 18.4792 29.375 18.3021 30 18.0312C29.5417 18.6979 28.9896 19.2708 28.3438 19.75Z" fill="#1B3764"/>
</svg>
